HIERARCHY
ROOT base
{
	OFFSET 0.0 0.0 0.0
	CHANNELS 6 Xposition Yposition Zposition Zrotation Yrotation Xrotation
	JOINT root
	{
		OFFSET 0 0 0
		CHANNELS 6 Xposition Yposition Zposition Zrotation Yrotation Xrotation
		JOINT chest
		{
			OFFSET 0 4.72302 0
			CHANNELS 3 Zrotation Yrotation Xrotation
			JOINT neck
			{
				OFFSET 0 4.47788 0
				CHANNELS 3 Zrotation Yrotation Xrotation
				End Site
				{
					OFFSET 0.0 0.0 0.0
				}
			}
			JOINT right_shoulder
			{
				OFFSET -0.481 4.87 3.6622
				CHANNELS 3 Zrotation Yrotation Xrotation
				JOINT right_elbow
				{
					OFFSET 0 -5.49576 0
					CHANNELS 3 Zrotation Yrotation Xrotation
					JOINT right_wrist
					{
						OFFSET 0 -5.17894 0
						CHANNELS 3 Zrotation Yrotation Xrotation
						End Site
						{
							OFFSET 0.0 0.0 0.0
						}
					}
				}
			}
			JOINT left_shoulder
			{
				OFFSET -0.481 4.87 -3.6622
				CHANNELS 3 Zrotation Yrotation Xrotation
				JOINT left_elbow
				{
					OFFSET 0 -5.49576 0
					CHANNELS 3 Zrotation Yrotation Xrotation
					JOINT left_wrist
					{
						OFFSET 0 -5.17894 0
						CHANNELS 3 Zrotation Yrotation Xrotation
						End Site
						{
							OFFSET 0.0 0.0 0.0
						}
					}
				}
			}
		}
		JOINT right_hip
		{
			OFFSET 0 0 1.69774
			CHANNELS 3 Zrotation Yrotation Xrotation
			JOINT right_knee
			{
				OFFSET 0 -8.43092 0
				CHANNELS 3 Zrotation Yrotation Xrotation
				JOINT right_ankle
				{
					OFFSET 0 -8.1974 0
					CHANNELS 3 Zrotation Yrotation Xrotation
					End Site
					{
						OFFSET 0.0 0.0 0.0
					}
				}
			}
		}
		JOINT left_hip
		{
			OFFSET 0 0 -1.69774
			CHANNELS 3 Zrotation Yrotation Xrotation
			JOINT left_knee
			{
				OFFSET 0 -8.43092 0
				CHANNELS 3 Zrotation Yrotation Xrotation
				JOINT left_ankle
				{
					OFFSET 0 -8.1974 0
					CHANNELS 3 Zrotation Yrotation Xrotation
					End Site
					{
						OFFSET 0.0 0.0 0.0
					}
				}
			}
		}
	}
	JOINT red_arrow
	{
		OFFSET 0 0 0
		CHANNELS 3 Zrotation Yrotation Xrotation
		End Site
		{
			OFFSET 0.0 0.0 0.0
		}
	}
	JOINT blue_arrow
	{
		OFFSET 0 0 0
		CHANNELS 3 Zrotation Yrotation Xrotation
		End Site
		{
			OFFSET 0.0 0.0 0.0
		}
	}
}
MOTION
Frames: 9
Frame Time: 0.0333333333333333
0 18.08466 0 0 0 0 0 0 0 0 -90 0 0 0 0 0 0 0 0 0 -90 0 0 0 0 0 0 0 0 90 0 0 0 0 0 0 0 0 0 0 0 0 0 0 0 0 0 0 0 0 0 0 0 0 0 0 0 0 0 0
0.800702768564224 0 0.0849310190416873 0 0.280539796010614 0 0 16.9770634889603 0 -6.04592161133175 -4.96961668978674E-16 0.374203108799705 -0.473617941000326 -5.42247452907579 0.893413301298328 0.699172345089432 0.00214789644141403 0.133544573384814 -14.4271989100422 12.0951664250357 -8.12655845812373 10.3501502106673 0 0 0 0 0 7.6731803729328 -17.4078293903437 19.7753653823814 33.7143123469924 0 0 0 0 0 26.8432816410188 -5.38193414037085 3.10138305851594 -12.6688474621776 0 0 -6.17591934199419 3.20470146951666 -5.13253339766609 -7.70749253448417 9.89418167159245 -0.82199733254289 -25.6740492975797 0 0 12.3388104315045 -8.15864791831747 10.6708915973605 0 0 0 0 0 0
1.44864703714848 0 0.22383744046092 0 0.209115124074087 0 0 17.0034559965134 0 -7.09077736353608 -1.34669349830668 -1.85604023156837 -0.671411804257573 -4.86535667019827 1.28197335283748 0.853705501509977 0.410892613756689 0.140374154663616 -12.8643870679725 13.9962514876849 -7.78549046584231 11.3368973947753 0 0 0 0 0 6.15557113210157 -16.6189660378195 19.1288389862276 33.7582987652472 0 0 0 0 0 25.7893557898894 -3.75858294332619 6.34317014334412 -12.8083130948401 0 0 -6.20300427906922 1.73699734336248 -5.20051203079764 -3.89034845227509 10.6221641212407 2.3527443871907 -28.7354049703765 0 0 9.43800850696661 -8.9238062768204 10.323700610612 0 0 0 0 0 0
2.12885259687901 0 0.302183585613966 0 0.098100854075213 0 0 17.0847069859505 0 -7.22288982304576 -2.09254805626436 -3.43685555284363 -0.325380497447947 -5.14986278572342 1.04941287670663 0.688741381328871 -0.0561214379924708 -0.201960159750197 -11.79902303736 15.8728985670271 -7.81196066514175 12.3007907659204 0 0 0 0 0 4.14220933736152 -15.2441537220468 17.9251621686174 32.9755454259854 0 0 0 0 0 23.5145772507176 -3.21765453598319 8.41112706546602 -12.7670186248918 0 0 -3.88049019396452 1.58018253579207 -5.2978193821939 0.251868631828982 10.3767445777341 4.75814709758213 -34.4087991516101 0 0 5.48678736019293 -9.59459956408475 9.04588031296478 0 0 0 0 0 0
2.83468913882971 0 0.335768110305071 0 -0.0113531943517556 0 0 17.1532902598381 0 -6.74722719509441 -2.06523623925756 -4.62245693707681 0.579702242175863 -5.27681055362499 0.689769960974572 0.829109677453851 -0.695330116129843 -0.348709208134746 -10.5287264220476 17.9419813930136 -7.99973050584033 13.1572614831205 0 0 0 0 0 2.09370646076318 -13.0239535514615 16.3588268494073 31.58327966557 0 0 0 0 0 20.892058592643 -2.64092087016515 9.68546918819527 -13.3116801074234 0 0 -1.12336285911627 1.02382430155691 -5.19327643908404 5.13402407124558 9.2362243932324 7.1385865595421 -42.8684119103994 0 0 1.24159074193576 -10.0235229551827 6.70212932045518 0 0 0 0 0 0
3.53639590889216 0 0.323552243411541 0 -0.0696790958301569 0 0 17.2185739755631 0 -6.04097868645218 -1.10203972711873 -5.33503647955549 1.66042346484203 -5.41539775603238 0.117342400932595 1.09827045818944 -1.3637518626708 -0.224314261817603 -9.00480333781627 20.1105319100677 -8.27844329687435 14.1803871085216 0 0 0 0 0 0.00504779094642082 -10.2003903056287 15.0061630297531 29.6420818468445 0 0 0 0 0 17.8014651419659 -2.66383415049905 10.0937699485736 -13.5466505677029 0 0 1.54076351800878 0.468759898904522 -4.99305562091768 10.5612107319548 7.25091801247519 9.43645054828218 -52.9505156159578 0 0 -3.35926194108222 -9.87569183545811 4.23925450262801 0 0 0 0 0 0
4.22365832775831 0 0.259348995983601 0 -0.0629414790122493 0 0 17.280878174305 0 -5.28338766984188 0.127470842897405 -5.55718810616632 2.6909838620387 -5.28988408369334 -0.56796922480784 1.41007216724438 -2.03716744075752 0.0794925192484717 -7.34709065245834 22.1904016601128 -8.6694745775197 15.6071051968842 0 0 0 0 0 -2.13375907652661 -7.37048128152669 14.0836410708894 27.1017347114835 0 0 0 0 0 14.3067772070707 -3.0215543381417 9.86344303705311 -13.105270936932 0 0 3.82896589470317 0.17491170186853 -4.68742575975187 15.9761446732618 4.85970989102669 11.3963281503602 -63.1159339690119 0 0 -8.71534266525429 -9.19713284093393 1.7140774159555 0 0 0 0 0 0
4.89178164303303 0 0.136758396402001 0 -0.00611520417077932 0 0 17.3389008760452 0 -4.57513413841994 1.07625966833659 -5.24303942836589 3.52819706598252 -4.80180641369369 -1.35445303149894 1.70665144273663 -2.6803129428774 0.460899238768238 -5.66275512498198 24.1857545138819 -9.17366607926372 17.4538517446722 0 0 0 0 0 -4.27961525543552 -4.68947865125858 13.5020491081446 24.2370014018711 0 0 0 0 0 10.6506785612701 -3.31776518134932 9.06009677629402 -12.0399236434028 0 0 5.69657416806638 0.170638393878109 -4.21860995042418 21.0523651863149 2.76856742091738 12.8617124452503 -71.9404700747767 0 0 -12.3870658375147 -7.80557302292268 0.35578197562351 0 0 0 0 0 0
5.53575162142515 0 -0.0385564692318439 0 0.0857583790043652 0 0 17.3912527441978 0 -3.97476050353906 1.74140195027773 -4.41199174826278 3.92602815892445 -4.16561937884233 -2.38982637560382 1.95620036642682 -3.1712009101411 0.887826503442938 -3.88857531849613 26.1126043344957 -9.81174988338205 19.7540835797614 0 0 0 0 0 -6.38129656655963 -2.16197286445202 13.2305391504626 21.4810491000749 0 0 0 0 0 6.93765457969664 -3.80568312667066 7.65606366112238 -10.4225109422817 0 0 7.16524038091767 0.595401118298157 -3.56555655339366 25.8263532020696 1.34009280263825 13.7244151375398 -78.1146468957664 0 0 -13.0015954061007 -5.71763697285894 0.0914926948894531 0 0 0 0 0 0
